<svg width="64" height="69" viewBox="0 0 64 69" fill="none" xmlns="http://www.w3.org/2000/svg">
<path d="M21 20H33.1559C41.355 20 45.271 25.8829 44.9854 37.3586C44.7407 46.68 39.8865 49 36.7048 49C29.8518 49 27.4451 40.6729 27.1187 35.9914C27.0372 34.4171 27.2411 33.7543 26.7924 33.7543C26.4253 33.7543 26.4661 34.0029 26.4661 35.37C26.4253 38.6014 27.5674 46.0171 31.4019 49H21.1632V35.6186C21.1632 34.5 21.7342 32.5943 24.2633 32.5943H27.3635C27.6898 32.5943 31.4834 37.6486 37.439 38.27C41.5182 38.6843 42.8235 37.7729 43.1498 36.2814C43.7209 33.5057 40.9063 30.8543 37.7245 29.3214C33.1559 27.1257 27.0779 28.5757 27.6898 31.4757H21.1632C21.6119 28.2443 21.3263 24.0186 21 20Z" fill="white"/>
<path d="M32 0C49.6552 0 64 15.9 64 34.5C64 53 49.6552 69 32 69C14.3448 69 0 53 0 34.5C0 15.9 14.3448 0 32 0ZM3.64138 34.5C3.64138 52 17.3241 68.2 32 68.2C46.6759 68.2 60.3586 52 60.3586 34.5C60.3586 16.9 46.6759 0.800001 32 0.800001C17.3241 0.800001 3.64138 16.9 3.64138 34.5Z" fill="white"/>
</svg>
