<svg width="858" height="858" viewBox="0 0 858 858" fill="none" xmlns="http://www.w3.org/2000/svg">
<g opacity="0.75">
<rect x="162.5" width="1" height="858" fill="url(#paint0_linear_1_138)" fill-opacity="0.65"/>
<rect y="695.5" width="1" height="858" transform="rotate(-90 0 695.5)" fill="url(#paint1_linear_1_138)" fill-opacity="0.65"/>
<rect x="295.5" width="1" height="858" fill="url(#paint2_linear_1_138)" fill-opacity="0.65"/>
<rect y="562.5" width="1" height="858" transform="rotate(-90 0 562.5)" fill="url(#paint3_linear_1_138)" fill-opacity="0.65"/>
<rect x="428.5" width="1" height="858" fill="url(#paint4_linear_1_138)" fill-opacity="0.65"/>
<rect y="429.5" width="1" height="858" transform="rotate(-90 0 429.5)" fill="url(#paint5_linear_1_138)" fill-opacity="0.65"/>
<rect x="561.5" width="1" height="858" fill="url(#paint6_linear_1_138)" fill-opacity="0.65"/>
<rect y="296.5" width="1" height="858" transform="rotate(-90 0 296.5)" fill="url(#paint7_linear_1_138)" fill-opacity="0.65"/>
<rect x="694.5" width="1" height="858" fill="url(#paint8_linear_1_138)" fill-opacity="0.65"/>
<rect y="163.5" width="1" height="858" transform="rotate(-90 0 163.5)" fill="url(#paint9_linear_1_138)" fill-opacity="0.65"/>
<circle cx="296.5" cy="296" r="3" fill="#4F4F4F"/>
<circle cx="296.5" cy="562" r="3" fill="#4F4F4F"/>
<circle cx="428.5" cy="163" r="3" fill="#4F4F4F"/>
<circle cx="561.5" cy="296" r="3" fill="#4F4F4F"/>
<circle cx="561.5" cy="562" r="3" fill="#4F4F4F"/>
<circle cx="429.5" cy="429" r="3" fill="#4F4F4F"/>
<circle cx="429.5" cy="694" r="3" fill="#4F4F4F"/>
<circle cx="694.5" cy="429" r="3" fill="#4F4F4F"/>
<circle cx="162.5" cy="429" r="3" fill="#4F4F4F"/>
</g>
<defs>
<linearGradient id="paint0_linear_1_138" x1="163" y1="0" x2="163" y2="858" gradientUnits="userSpaceOnUse">
<stop stop-color="#3A3A3A" stop-opacity="0.07"/>
<stop offset="0.541667" stop-color="#8F8F8F"/>
<stop offset="1" stop-color="#343434" stop-opacity="0.04"/>
</linearGradient>
<linearGradient id="paint1_linear_1_138" x1="0.5" y1="695.5" x2="0.5" y2="1553.5" gradientUnits="userSpaceOnUse">
<stop stop-color="#3A3A3A" stop-opacity="0.07"/>
<stop offset="0.541667" stop-color="#8F8F8F"/>
<stop offset="1" stop-color="#343434" stop-opacity="0.04"/>
</linearGradient>
<linearGradient id="paint2_linear_1_138" x1="296" y1="0" x2="296" y2="858" gradientUnits="userSpaceOnUse">
<stop stop-color="#3A3A3A" stop-opacity="0.07"/>
<stop offset="0.541667" stop-color="#8F8F8F"/>
<stop offset="1" stop-color="#343434" stop-opacity="0.04"/>
</linearGradient>
<linearGradient id="paint3_linear_1_138" x1="0.5" y1="562.5" x2="0.5" y2="1420.5" gradientUnits="userSpaceOnUse">
<stop stop-color="#3A3A3A" stop-opacity="0.07"/>
<stop offset="0.541667" stop-color="#8F8F8F"/>
<stop offset="1" stop-color="#343434" stop-opacity="0.04"/>
</linearGradient>
<linearGradient id="paint4_linear_1_138" x1="429" y1="0" x2="429" y2="858" gradientUnits="userSpaceOnUse">
<stop stop-color="#3A3A3A" stop-opacity="0.07"/>
<stop offset="0.541667" stop-color="#8F8F8F"/>
<stop offset="1" stop-color="#343434" stop-opacity="0.04"/>
</linearGradient>
<linearGradient id="paint5_linear_1_138" x1="0.5" y1="429.5" x2="0.5" y2="1287.5" gradientUnits="userSpaceOnUse">
<stop stop-color="#3A3A3A" stop-opacity="0.07"/>
<stop offset="0.541667" stop-color="#8F8F8F"/>
<stop offset="1" stop-color="#343434" stop-opacity="0.04"/>
</linearGradient>
<linearGradient id="paint6_linear_1_138" x1="562" y1="0" x2="562" y2="858" gradientUnits="userSpaceOnUse">
<stop stop-color="#3A3A3A" stop-opacity="0.07"/>
<stop offset="0.541667" stop-color="#8F8F8F"/>
<stop offset="1" stop-color="#343434" stop-opacity="0.04"/>
</linearGradient>
<linearGradient id="paint7_linear_1_138" x1="0.5" y1="296.5" x2="0.5" y2="1154.5" gradientUnits="userSpaceOnUse">
<stop stop-color="#3A3A3A" stop-opacity="0.07"/>
<stop offset="0.541667" stop-color="#8F8F8F"/>
<stop offset="1" stop-color="#343434" stop-opacity="0.04"/>
</linearGradient>
<linearGradient id="paint8_linear_1_138" x1="695" y1="0" x2="695" y2="858" gradientUnits="userSpaceOnUse">
<stop stop-color="#3A3A3A" stop-opacity="0.07"/>
<stop offset="0.541667" stop-color="#8F8F8F"/>
<stop offset="1" stop-color="#343434" stop-opacity="0.04"/>
</linearGradient>
<linearGradient id="paint9_linear_1_138" x1="0.5" y1="163.5" x2="0.5" y2="1021.5" gradientUnits="userSpaceOnUse">
<stop stop-color="#3A3A3A" stop-opacity="0.07"/>
<stop offset="0.541667" stop-color="#8F8F8F"/>
<stop offset="1" stop-color="#343434" stop-opacity="0.04"/>
</linearGradient>
</defs>
</svg>
