<svg width="58" height="58" viewBox="0 0 58 58" fill="none" xmlns="http://www.w3.org/2000/svg">
<rect width="57.4462" height="57.4462" rx="16.6779" fill="#2864AA"/>
<path fill-rule="evenodd" clip-rule="evenodd" d="M26.3409 25.9147H29.7821V27.6288C30.2778 26.6429 31.5491 25.7571 33.4587 25.7571C37.1195 25.7571 37.9886 27.7196 37.9886 31.3202V37.9885H34.2824V32.1402C34.2824 30.0897 33.7867 28.9334 32.5247 28.9334C30.7745 28.9334 30.0471 30.1796 30.0471 32.1392V37.9885H26.3409V25.9147ZM19.9857 37.831H23.6919V25.7571H19.9857V37.831ZM24.2228 21.8202C24.223 22.1309 24.1614 22.4385 24.0416 22.7251C23.9218 23.0117 23.7463 23.2717 23.5251 23.4899C23.0771 23.9352 22.4706 24.1845 21.8388 24.1829C21.2082 24.1825 20.6031 23.9339 20.1543 23.4908C19.934 23.2719 19.7591 23.0116 19.6395 22.7249C19.5199 22.4383 19.4581 22.1308 19.4576 21.8202C19.4576 21.193 19.7077 20.5925 20.1553 20.1497C20.6036 19.706 21.209 19.4572 21.8397 19.4575C22.4717 19.4575 23.0776 19.7068 23.5251 20.1497C23.9717 20.5925 24.2228 21.193 24.2228 21.8202Z" fill="white"/>
</svg>
