<svg width="96" height="96" viewBox="0 0 96 96" fill="none" xmlns="http://www.w3.org/2000/svg">
<path d="M23.7851 76.458C10.2874 66.08 8.29872 51.3604 8.00572 36.0004C7.87916 29.3652 9.80504 28 18.6368 28H61.3632C70.1948 28 72.1208 29.3652 71.9944 36.0004C71.7012 51.3604 69.7124 66.08 56.2148 76.458C52.3736 79.4112 49.1324 80 43.6776 80H36.3226C30.8674 80 27.6263 79.4112 23.7851 76.458Z" fill="#E4E4E5"/>
<path d="M45.2356 10C43.0488 11.3544 40.0048 16 40.0048 22M30.1588 16C30.1588 16 28 18 28 22M56.0048 16C54.9116 16.6772 54 20 54 22" stroke="black" stroke-width="1.5" stroke-linecap="round" stroke-linejoin="round"/>
<path d="M73.002 42H78.5612C85.9672 42 88.1684 43.062 87.99 48.3352C87.6948 57.0696 83.756 67.2188 68 70" stroke="black" stroke-width="1.5" stroke-linecap="round"/>
<path d="M23.7851 82.458C10.2874 72.08 8.29872 57.3604 8.00572 42.0004C7.87916 35.3652 9.80504 34 18.6368 34H61.3632C70.1948 34 72.1208 35.3652 71.9944 42.0004C71.7012 57.3604 69.7124 72.08 56.2148 82.458C52.3736 85.4112 49.1324 86 43.6776 86H36.3226C30.8674 86 27.6263 85.4112 23.7851 82.458Z" stroke="black" stroke-width="1.5" stroke-linecap="round"/>
<path d="M40 34V54M34.017 65.1864L35.1846 57.7804C35.5266 55.6112 37.577 54 39.9954 54C42.4136 54 44.464 55.6112 44.806 57.7804L45.9736 65.1864C46.6032 69.1776 33.4645 68.6904 34.017 65.1864Z" stroke="black" stroke-width="1.5" stroke-linecap="round" stroke-linejoin="round"/>
</svg>
