<svg width="96" height="96" viewBox="0 0 96 96" fill="none" xmlns="http://www.w3.org/2000/svg">
  <path
    d="M66 77H70.1832C75.6268 77 78.3484 77 80.324 75.7308C81.2896 75.1104 82.1104 74.2896 82.7308 73.324C84 71.3484 84 68.6268 84 63.1832C84 61.4372 84 60.564 84.182 59.7252C84.2728 59.3068 84.3972 58.8964 84.5536 58.4976C84.8676 57.6988 85.352 56.9724 86.3204 55.5192L88 53H66C62.2724 53 60.4088 53 58.9384 53.6088C56.9784 54.4208 55.4208 55.9784 54.6088 57.9384C54 59.4088 54 61.2724 54 65C54 68.7276 54 70.5912 54.6088 72.0616C55.4208 74.0216 56.9784 75.5792 58.9384 76.3912C60.4088 77 62.2724 77 66 77Z"
    fill="#E4E4E5" />
  <path
    d="M30 76H25.8166C20.3733 76 17.6516 76 15.6759 74.7308C14.7104 74.1104 13.8896 73.2896 13.2693 72.324C12 70.3484 12 67.6268 12 62.1832C12 60.4372 12 59.564 11.8179 58.7252C11.7271 58.3068 11.6028 57.8964 11.4463 57.4976C11.1325 56.6988 10.6482 55.9724 9.67948 54.5192L8 52H30C33.7275 52 35.5913 52 37.0615 52.6088C39.0217 53.4208 40.5792 54.9784 41.3912 56.9384C42 58.4088 42 60.2724 42 64C42 67.7276 42 69.5912 41.3912 71.0616C40.5792 73.0216 39.0217 74.5792 37.0615 75.3912C35.5913 76 33.7275 76 30 76Z"
    fill="#E4E4E5" />
  <path
    d="M30 80H25.8166C20.3733 80 17.6516 80 15.6759 78.7308C14.7104 78.1104 13.8896 77.2896 13.2693 76.324C12 74.3484 12 71.6268 12 66.1832C12 64.4372 12 63.564 11.8179 62.7252C11.7271 62.3068 11.6028 61.8964 11.4463 61.4976C11.1325 60.6988 10.6482 59.9724 9.67948 58.5192L8 56H30C33.7275 56 35.5913 56 37.0615 56.6088C39.0217 57.4208 40.5792 58.9784 41.3912 60.9384C42 62.4088 42 64.2724 42 68C42 71.7276 42 73.5912 41.3912 75.0616C40.5792 77.0216 39.0217 78.5792 37.0615 79.3912C35.5913 80 33.7275 80 30 80Z"
    stroke="black" stroke-width="1.5" stroke-linecap="round" stroke-linejoin="round" />
  <path
    d="M66 80H70.1832C75.6268 80 78.3484 80 80.324 78.7308C81.2896 78.1104 82.1104 77.2896 82.7308 76.324C84 74.3484 84 71.6268 84 66.1832C84 64.4372 84 63.564 84.182 62.7252C84.2728 62.3068 84.3972 61.8964 84.5536 61.4976C84.8676 60.6988 85.352 59.9724 86.3204 58.5192L88 56H66C62.2724 56 60.4088 56 58.9384 56.6088C56.9784 57.4208 55.4208 58.9784 54.6088 60.9384C54 62.4088 54 64.2724 54 68C54 71.7276 54 73.5912 54.6088 75.0616C55.4208 77.0216 56.9784 78.5792 58.9384 79.3912C60.4088 80 62.2724 80 66 80Z"
    stroke="black" stroke-width="1.5" stroke-linecap="round" stroke-linejoin="round" />
  <path
    d="M88 56L74.1036 21.8569C72.9464 19.0138 72.368 17.5922 71.5688 16.9142C70.388 15.9124 68.802 15.7181 67.4516 16.4099C66.538 16.8781 65.692 18.1252 64 20.6194"
    stroke="black" stroke-width="1.5" stroke-linecap="round" stroke-linejoin="round" />
  <path
    d="M8 56L21.8964 21.8569C23.0535 19.0138 23.6321 17.5922 24.4312 16.9142C25.6118 15.9124 27.1979 15.7181 28.5482 16.4099C29.4621 16.8781 30.3081 18.1252 32 20.6194"
    stroke="black" stroke-width="1.5" stroke-linecap="round" stroke-linejoin="round" />
  <path d="M42 64C42 60.6864 44.6864 58 48 58C51.3136 58 54 60.6864 54 64" stroke="black" stroke-width="1.5" />
</svg>