<svg width="96" height="96" viewBox="0 0 96 96" fill="none" xmlns="http://www.w3.org/2000/svg">
<path d="M68 51.218C68 49.8352 68 49.144 68.208 48.528C68.8128 46.7376 70.4072 46.0432 72.0044 45.3156C73.8 44.4976 74.6976 44.0888 75.5872 44.0168C76.5972 43.9352 77.6088 44.1528 78.472 44.6372C79.6164 45.2792 80.4144 46.4996 81.2316 47.492C85.0052 52.0752 86.8916 54.3672 87.582 56.8944C88.1392 58.9336 88.1392 61.0664 87.582 63.1056C86.5752 66.7916 83.394 69.8816 81.0392 72.7416C79.8348 74.2044 79.2324 74.936 78.472 75.3628C77.6088 75.8472 76.5972 76.0648 75.5872 75.9832C74.6976 75.9112 73.8 75.5024 72.0044 74.6844C70.4072 73.9568 68.8128 73.2624 68.208 71.472C68 70.856 68 70.1648 68 68.782V51.218Z" fill="#E4E4E5"/>
<path d="M28 51.2183C28 49.4775 27.9511 47.9127 26.5436 46.6887C26.0317 46.2435 25.353 45.9343 23.9956 45.3159C22.2 44.4983 21.3022 44.0895 20.4126 44.0175C17.7436 43.8015 16.3077 45.6231 14.7685 47.4927C10.995 52.0759 9.10824 54.3675 8.41784 56.8947C7.86072 58.9343 7.86072 61.0671 8.41784 63.1063C9.4248 66.7923 12.6061 69.8819 14.9608 72.7423C16.4452 74.5451 17.8631 76.1899 20.4126 75.9839C21.3022 75.9119 22.2 75.5027 23.9956 74.6851C25.353 74.0667 26.0317 73.7575 26.5436 73.3123C27.9511 72.0883 28 70.5239 28 68.7827V51.2183Z" fill="#E4E4E5"/>
<path d="M68 57.218C68 55.8352 68 55.144 68.208 54.528C68.8128 52.7376 70.4072 52.0432 72.0044 51.3156C73.8 50.4976 74.6976 50.0888 75.5872 50.0168C76.5972 49.9352 77.6088 50.1528 78.472 50.6372C79.6164 51.2792 80.4144 52.4996 81.2316 53.492C85.0052 58.0752 86.8916 60.3672 87.582 62.8944C88.1392 64.9336 88.1392 67.0664 87.582 69.1056C86.5752 72.7916 83.394 75.8816 81.0392 78.7416C79.8348 80.2044 79.2324 80.936 78.472 81.3628C77.6088 81.8472 76.5972 82.0648 75.5872 81.9832C74.6976 81.9112 73.8 81.5024 72.0044 80.6844C70.4072 79.9568 68.8128 79.2624 68.208 77.472C68 76.856 68 76.1648 68 74.782V57.218Z" stroke="black" stroke-width="1.5"/>
<path d="M28 57.2183C28 55.4775 27.9511 53.9127 26.5436 52.6887C26.0317 52.2435 25.353 51.9343 23.9956 51.3159C22.2 50.4983 21.3022 50.0895 20.4126 50.0175C17.7436 49.8015 16.3077 51.6231 14.7685 53.4927C10.995 58.0759 9.10824 60.3675 8.41784 62.8947C7.86072 64.9343 7.86072 67.0671 8.41784 69.1063C9.4248 72.7923 12.6061 75.8819 14.9608 78.7423C16.4452 80.5451 17.8631 82.1899 20.4126 81.9839C21.3022 81.9119 22.2 81.5027 23.9956 80.6851C25.353 80.0667 26.0317 79.7575 26.5436 79.3123C27.9511 78.0883 28 76.5239 28 74.7827V57.2183Z" stroke="black" stroke-width="1.5"/>
<path d="M76 50V42C76 26.536 63.464 14 48 14C32.536 14 20 26.536 20 42V50" stroke="black" stroke-width="1.5" stroke-linecap="square" stroke-linejoin="round"/>
</svg>
