<svg width="83" height="87" viewBox="0 0 83 87" fill="none" xmlns="http://www.w3.org/2000/svg">
    <path
        d="M35.6905 59.9551H39.4834V84.7559C39.4834 85.994 38.4771 87 37.2386 87H30.3882C29.1497 87 28.1435 85.994 28.1435 84.7559V59.9164H31.8976V83.2083H35.6905V59.9551Z"
        fill="white" />
    <path
        d="M54.3667 72.1814C54.3667 73.4195 53.3604 74.4642 52.0832 74.4642H51.2318L54.328 87H50.5351L47.6324 74.4642H46.7423V87H42.9881V59.9164H52.0832C53.3217 59.9164 54.328 60.9224 54.3667 62.1992V72.1814ZM50.5738 70.6725V63.7081H46.7423V70.6725H50.5738Z"
        fill="white" />
    <path fillRule="evenodd" clipRule="evenodd"
        d="M20.8459 67.4998H24.6387V62.1992C24.6387 60.9611 23.6325 59.9164 22.394 59.9164H15.5436C14.3051 59.9164 13.2988 60.9224 13.2988 62.1605V79.8718L17.053 83.1262V78.3495V63.7081H20.8459V67.4998ZM17.1477 83.2083L21.5218 87H22.394C23.6325 87 24.6387 85.994 24.6387 84.7559V71.2915H18.9494V75.0832H20.8459V81.5463V83.2083H17.1477Z"
        fill="white" />
    <path d="M20.8459 83.2083V81.5463L17.053 78.3495V83.1262L17.1477 83.2083H20.8459Z" fill="white" />
    <path fillRule="evenodd" clipRule="evenodd"
        d="M69.1726 59.9551H65.3798V77.5376V82.4598L69.1726 79.2121V59.9551ZM64.5056 83.2083H61.5869V80.7852V59.9164H57.8327V84.7559C57.8327 85.994 58.839 87 60.0775 87L64.5056 83.2083Z"
        fill="white" />
    <path d="M61.5869 80.7852V83.2083H64.5056L65.3798 82.4598V77.5376L61.5869 80.7852Z" fill="white" />
    <path
        d="M41.2669 38.6257L30.001 33.8345L9.83436 40.928L0 35.5145L1.68055 42.1724L22.4696 55.1149L41.2669 49.0792L60.0643 55.1149L80.8533 42.1724L82.5339 35.5145L72.6995 40.928L52.5329 33.8345L41.2669 38.6257Z"
        fill="white" />
    <path
        d="M39.3084 23.2919H46.8942V27.0836H35.5542V13.0001C35.5542 11.762 36.5605 10.756 37.799 10.756H43.1013V3.7917H39.3084V7.19649H35.5542V2.24407C35.5542 1.00596 36.5605 0 37.799 0H44.6494C45.8879 0 46.8942 1.00596 46.8942 2.24407V12.2263C46.8942 12.265 46.8942 12.265 46.8942 12.265C46.8942 13.5031 45.8879 14.509 44.6494 14.509V14.5477H39.3084V23.2919Z"
        fill="white" />
    <path fillRule="evenodd" clipRule="evenodd"
        d="M26.387 0.178645H32.692V25.1889C32.692 26.5702 31.5723 27.6899 30.191 27.6899H17.5588L26.387 0.178645ZM28.9929 3.75154L22.4577 24.117H29.1191V3.75154H28.9929Z"
        fill="white" />
    <path fillRule="evenodd" clipRule="evenodd"
        d="M55.7166 0.178645H49.8419V25.1889C49.8419 26.5702 50.9617 27.6899 52.3429 27.6899H62.5257V24.117H53.4148V3.75154H53.4353L57.8681 13.3082L61.1093 11.8048L55.7166 0.178645Z"
        fill="white" />
</svg>