<svg width="96" height="96" viewBox="0 0 96 96" fill="none" xmlns="http://www.w3.org/2000/svg">
<path d="M16.2647 22C17.8532 31.6 34.2064 31.3333 40.1631 30C36.3124 22.2425 41.1858 19.4999 43.8985 18.125C43.9805 18.0835 44.0608 18.043 44.1385 18.0039L44.1415 18.0024L44.1463 18C55.9603 32 81.2199 39.616 87.4099 54.8752C87.5059 55.1118 87.5886 55.3457 87.6586 55.5769C78.9506 59.6582 70.3852 57.9631 64.1235 55.0432C59.0519 52.678 56.5159 51.4956 55.2727 51.41C54.0299 51.3244 52.0355 51.9548 48.0471 53.2156C34.8947 57.3735 24.6353 55.7202 8.00011 50.0137C8.47407 40.076 13.0757 27.7818 16.2647 22Z" fill="#E4E4E5"/>
<path d="M54 38L60 32" stroke="black" stroke-width="1.5" stroke-linecap="round" stroke-linejoin="round"/>
<path d="M62 44L68 38" stroke="black" stroke-width="1.5" stroke-linecap="round" stroke-linejoin="round"/>
<path d="M8 56C8.01328 56.0046 8.02655 56.0091 8.03983 56.0137M88 61.4332C87.8994 61.4819 87.7988 61.5298 87.6983 61.5769M8.03983 56.0137C8.51379 46.076 13.1154 33.7818 16.3044 28C17.893 37.6 34.2461 37.3333 40.2028 36C36.3521 28.2425 41.2255 25.4999 43.9382 24.125C44.0212 24.0829 44.1026 24.042 44.1812 24.0024L44.186 24C56 38 81.2596 45.616 87.4496 60.8752C87.5456 61.1118 87.6283 61.3457 87.6983 61.5769M8.03983 56.0137C24.675 61.7202 34.9344 63.3735 48.0868 59.2156C52.0752 57.9548 54.0696 57.3244 55.3124 57.41C56.5556 57.4956 59.0916 58.678 64.1632 61.0432C70.4249 63.9631 78.9903 65.6582 87.6983 61.5769M8.03983 56.0137C7.8174 60.6773 8.50402 64.8221 10.6723 67.5312C14.2488 72 20.1165 72 31.852 72H76.4048C82.2859 72 89.5786 67.7864 87.6983 61.5769" stroke="black" stroke-width="1.5" stroke-linejoin="round"/>
<path d="M54 38L60 32" stroke="black" stroke-width="1.5" stroke-linecap="round" stroke-linejoin="round"/>
<path d="M62 44L68 38" stroke="black" stroke-width="1.5" stroke-linecap="round" stroke-linejoin="round"/>
</svg>
