<svg width="96" height="96" viewBox="0 0 96 96" fill="none" xmlns="http://www.w3.org/2000/svg">
<path d="M74.573 22.286V47.9801M74.7926 28.3966L78.5627 25.5273M74.0156 32.8955L71.6087 31.1004M37.6607 44.3109C37.6607 49.1531 33.7314 53.0782 28.8842 53.0782C24.0369 53.0782 20.1077 49.1529 20.1077 44.3109C20.1077 37.214 28.8842 30.4588 28.8842 30.4588C28.8842 30.4588 37.6607 37.2573 37.6607 44.3109ZM86.6653 25.2418C86.6653 32.8276 81.8649 39.512 74.5729 43.4398C67.2808 39.5122 62.4804 32.8276 62.4804 25.2418C62.4804 17.6559 67.2808 10.9715 74.5729 7.04395C81.8649 10.9713 86.6653 17.6559 86.6653 25.2418Z" stroke="black" stroke-width="1.5" stroke-miterlimit="10" stroke-linecap="round" stroke-linejoin="round"/>
<path fillRule="evenodd" clipRule="evenodd" d="M45.0667 68.4452L51.4761 16.3494H6.29231L12.7016 68.4452C13.0637 71.4617 15.6217 73.7319 18.6591 73.7319H39.1093C42.1466 73.7319 44.7049 71.4617 45.0667 68.4452ZM62.3316 83.9559H86.8144C90.7483 83.9559 93.9375 80.7667 93.9375 76.8328V59.4268H55.2084V76.8328C55.2084 80.7667 58.3976 83.9559 62.3316 83.9559Z" fill="#E4E4E5"/>
<path d="M74.573 22.286V47.9801M74.7926 28.3966L78.5627 25.5273M74.0156 32.8955L71.6087 31.1004M37.6607 44.3109C37.6607 49.1531 33.7314 53.0782 28.8842 53.0782C24.0369 53.0782 20.1077 49.1529 20.1077 44.3109C20.1077 37.214 28.8842 30.4588 28.8842 30.4588C28.8842 30.4588 37.6607 37.2573 37.6607 44.3109ZM86.6653 25.2418C86.6653 32.8276 81.8649 39.512 74.5729 43.4398C67.2808 39.5122 62.4804 32.8276 62.4804 25.2418C62.4804 17.6559 67.2808 10.9715 74.5729 7.04395C81.8649 10.9713 86.6653 17.6559 86.6653 25.2418Z" stroke="black" stroke-width="1.5" stroke-miterlimit="10" stroke-linecap="round" stroke-linejoin="round"/>
<path d="M51.4761 21.3494L45.0668 73.4452C44.7049 76.4617 42.1466 78.7319 39.1093 78.7319H18.6591C15.6217 78.7319 13.0637 76.4617 12.7016 73.4452L6.29231 21.3494M38.6402 80.0547V82.9538C38.6402 86.2686 35.9539 88.9559 32.64 88.9559H25.1282C21.8143 88.9559 19.128 86.2686 19.128 82.9538V80.0547M57.8893 63.104V60.8103C57.8893 57.7827 60.3429 55.3283 63.3696 55.3283H85.7766C88.8032 55.3283 91.2568 57.7827 91.2568 60.8103V63.104M55.7059 20.0266H2.0625V17.7526C2.0625 14.4383 4.74937 11.7515 8.06363 11.7515H49.7048C53.019 11.7515 55.7059 14.4383 55.7059 17.7526V20.0266ZM86.8144 88.9559H62.3316C58.3976 88.9559 55.2084 85.7667 55.2084 81.8328V64.4268H93.9375V81.8328C93.9375 85.7667 90.7483 88.9559 86.8144 88.9559Z" stroke="black" stroke-width="1.5" stroke-miterlimit="10" stroke-linecap="round" stroke-linejoin="round"/>
</svg>
