<svg width="320" height="52" viewBox="0 0 320 52" fill="none" xmlns="http://www.w3.org/2000/svg">
<path d="M26 0L33.3508 15.8824L50.7275 17.9656L37.8939 29.8646L41.2824 47.0344L26 38.506L10.7176 47.0344L14.1061 29.8646L1.27253 17.9656L18.6492 15.8824L26 0Z" fill="#171616"/>
<path d="M93 0L100.351 15.8824L117.727 17.9656L104.894 29.8646L108.282 47.0344L93 38.506L77.7176 47.0344L81.1061 29.8646L68.2725 17.9656L85.6492 15.8824L93 0Z" fill="#171616"/>
<path d="M160 0L167.351 15.8824L184.727 17.9656L171.894 29.8646L175.282 47.0344L160 38.506L144.718 47.0344L148.106 29.8646L135.273 17.9656L152.649 15.8824L160 0Z" fill="#171616"/>
<path d="M227 0L234.351 15.8824L251.727 17.9656L238.894 29.8646L242.282 47.0344L227 38.506L211.718 47.0344L215.106 29.8646L202.273 17.9656L219.649 15.8824L227 0Z" fill="#171616"/>
<path d="M294 0L301.351 15.8824L318.727 17.9656L305.894 29.8646L309.282 47.0344L294 38.506L278.718 47.0344L282.106 29.8646L269.273 17.9656L286.649 15.8824L294 0Z" fill="#171616"/>
</svg>
