<svg width="96" height="96" viewBox="0 0 96 96" fill="none" xmlns="http://www.w3.org/2000/svg">
<path d="M24.0002 41L24.0002 58.7364C24.0002 65.9808 24.0002 69.6032 26.3434 71.854C31.5998 76.9028 63.4234 77.8416 69.657 71.854C72.0002 69.6032 72.0002 65.9808 72.0002 58.7364V41L83.8274 29.5566C86.6094 26.8641 88.0002 25.5179 88.0002 23.8449C88.0002 22.172 86.6094 20.8258 83.8274 18.1333L75.8234 10.3866L75.8211 10.3843C74.4358 9.04352 73.743 8.37289 72.9166 7.87873C72.0902 7.38429 71.1598 7.08413 69.299 6.48385L62.7158 4.35989C61.753 4.04933 61.2718 3.89405 60.9446 4.08073C60.6174 4.26745 60.5138 4.80521 60.3074 5.88073C59.2258 11.5074 54.127 15.7674 48.0002 15.7674C41.8734 15.7674 36.7746 11.5074 35.6932 5.88073C35.4865 4.80521 35.3832 4.26745 35.0559 4.08073C34.7286 3.89405 34.2473 4.04933 33.2847 4.35989L26.7013 6.48385C24.8407 7.08413 23.9104 7.38429 23.0838 7.87873C22.2572 8.37317 21.5638 9.04429 20.177 10.3866L12.1731 18.1333C9.3912 20.8258 8.00024 22.172 8.00024 23.8449C8.00024 25.5179 9.3912 26.8641 12.1731 29.5566L24.0002 41Z" fill="#E4E4E5"/>
<path d="M24.75 36C24.75 35.5858 24.4142 35.25 24 35.25C23.5858 35.25 23.25 35.5858 23.25 36H24.75ZM26.3432 79.854L25.8236 80.3949L25.8236 80.3949L26.3432 79.854ZM69.6568 79.854L70.1763 80.3949L70.1764 80.3949L69.6568 79.854ZM72.75 36C72.75 35.5858 72.4142 35.25 72 35.25C71.5858 35.25 71.25 35.5858 71.25 36H72.75ZM24 49H24.75C24.75 48.7968 24.6675 48.6023 24.5215 48.461L24 49ZM12.1728 37.5566L11.6512 38.0955L11.6513 38.0956L12.1728 37.5566ZM12.1728 26.1333L11.6512 25.5943L11.6512 25.5943L12.1728 26.1333ZM20.1767 18.3866L20.6983 18.9255L20.6983 18.9255L20.1767 18.3866ZM26.701 14.4839L26.4708 13.7701L26.4708 13.7701L26.701 14.4839ZM33.2845 12.3599L33.5148 13.0737L33.5148 13.0737L33.2845 12.3599ZM35.0556 12.0807L35.4273 11.4293L35.4272 11.4293L35.0556 12.0807ZM35.693 13.8807L34.9564 14.0223L34.9564 14.0223L35.693 13.8807ZM60.3072 13.8807L61.0437 14.0223L61.0438 14.0221L60.3072 13.8807ZM60.9444 12.0807L60.5727 11.4293L60.5727 11.4293L60.9444 12.0807ZM62.7156 12.3599L62.9459 11.6461L62.9458 11.6461L62.7156 12.3599ZM69.2988 14.4839L69.0685 15.1976L69.0685 15.1976L69.2988 14.4839ZM72.9164 15.8787L72.5313 16.5223L72.5315 16.5224L72.9164 15.8787ZM75.8232 18.3866L75.3005 18.9244L75.3016 18.9255L75.8232 18.3866ZM83.8272 26.1333L83.3056 26.6722L83.3056 26.6722L83.8272 26.1333ZM83.8272 37.5566L84.3487 38.0956L84.3488 38.0955L83.8272 37.5566ZM72 49L71.4785 48.461C71.3325 48.6023 71.25 48.7968 71.25 49H72ZM75.8208 18.3843L76.3436 17.8464L76.3424 17.8453L75.8208 18.3843ZM23.25 36L23.25 66.7364H24.75L24.75 36H23.25ZM23.25 66.7364C23.25 70.3366 23.2483 73.1152 23.5501 75.2718C23.8555 77.4531 24.4842 79.1083 25.8236 80.3949L26.8627 79.3131C25.8589 78.3489 25.3161 77.0675 25.0357 75.0638C24.7517 73.0354 24.75 70.3807 24.75 66.7364H23.25ZM25.8236 80.3949C26.5946 81.1354 27.785 81.7457 29.2045 82.2551C30.6402 82.7703 32.3811 83.2067 34.3158 83.5635C38.1867 84.2773 42.8958 84.6835 47.6242 84.7426C52.3519 84.8017 57.126 84.5141 61.125 83.8292C63.1243 83.4869 64.9459 83.0425 66.478 82.485C68 81.9311 69.2896 81.2467 70.1763 80.3949L69.1372 79.3131C68.4656 79.9582 67.3971 80.5543 65.9651 81.0754C64.5432 81.5928 62.8148 82.018 60.8718 82.3508C56.9864 83.0162 52.3073 83.301 47.6429 83.2427C42.9791 83.1844 38.3571 82.7835 34.5879 82.0884C32.7026 81.7408 31.0462 81.3223 29.7111 80.8432C28.3598 80.3583 27.4058 79.8348 26.8627 79.3131L25.8236 80.3949ZM70.1764 80.3949C71.5158 79.1083 72.1445 77.4531 72.4499 75.2718C72.7517 73.1152 72.75 70.3366 72.75 66.7364H71.25C71.25 70.3807 71.2483 73.0354 70.9643 75.0638C70.6839 77.0675 70.141 78.3489 69.1372 79.3131L70.1764 80.3949ZM72.75 66.7364V36H71.25V66.7364H72.75ZM24.5215 48.461L12.6944 37.0176L11.6513 38.0956L23.4785 49.539L24.5215 48.461ZM12.6944 37.0177C11.2881 35.6565 10.289 34.6873 9.63221 33.8541C8.98817 33.0371 8.75 32.4438 8.75 31.8449H7.25C7.25 32.919 7.70731 33.8352 8.45422 34.7827C9.18833 35.714 10.2757 36.7642 11.6512 38.0955L12.6944 37.0177ZM8.75 31.8449C8.75 31.246 8.98817 30.6527 9.63221 29.8358C10.289 29.0025 11.2881 28.0333 12.6944 26.6722L11.6512 25.5943C10.2757 26.9257 9.18833 27.9759 8.45422 28.9071C7.70731 29.8546 7.25 30.7709 7.25 31.8449H8.75ZM12.6944 26.6722L20.6983 18.9255L19.6551 17.8477L11.6512 25.5943L12.6944 26.6722ZM20.6983 18.9255C22.1088 17.5603 22.7332 16.9622 23.4685 16.5224L22.6985 15.2351C21.7807 15.7841 21.0182 16.5283 19.6551 17.8477L20.6983 18.9255ZM23.4685 16.5224C24.2049 16.0819 25.039 15.8081 26.9313 15.1976L26.4708 13.7701C24.6418 14.3601 23.6153 14.6867 22.6985 15.2351L23.4685 16.5224ZM26.9313 15.1976L33.5148 13.0737L33.0542 11.6461L26.4708 13.7701L26.9313 15.1976ZM33.5148 13.0737C34.0152 12.9122 34.3245 12.8138 34.5503 12.7703C34.7741 12.7271 34.7557 12.773 34.684 12.7322L35.4272 11.4293C35.0283 11.2017 34.6056 11.232 34.2663 11.2974C33.929 11.3625 33.5164 11.497 33.0542 11.6461L33.5148 13.0737ZM34.684 12.7322C34.5913 12.6793 34.6254 12.6241 34.7046 12.874C34.7806 13.1141 34.8494 13.4652 34.9564 14.0223L36.4295 13.7392C36.3299 13.2208 36.2436 12.7652 36.1345 12.4209C36.0285 12.0863 35.8473 11.6689 35.4273 11.4293L34.684 12.7322ZM34.9564 14.0223C36.1076 20.0122 41.524 24.5174 48 24.5174V23.0174C42.2224 23.0174 37.441 19.0025 36.4295 13.7392L34.9564 14.0223ZM48 24.5174C54.476 24.5174 59.8923 20.0122 61.0437 14.0223L59.5707 13.7392C58.5589 19.0025 53.7776 23.0174 48 23.0174V24.5174ZM61.0438 14.0221C61.1506 13.4651 61.2194 13.114 61.2955 12.874C61.3746 12.6242 61.4088 12.6793 61.3161 12.7321L60.5727 11.4293C60.1528 11.6689 59.9716 12.0862 59.8655 12.4209C59.7564 12.7653 59.6702 13.2208 59.5706 13.7394L61.0438 14.0221ZM61.3161 12.7322C61.2444 12.7731 61.2258 12.7271 61.4496 12.7703C61.6755 12.8138 61.9848 12.9122 62.4854 13.0737L62.9458 11.6461C62.4836 11.497 62.0709 11.3625 61.7337 11.2974C61.3944 11.232 60.9716 11.2017 60.5727 11.4293L61.3161 12.7322ZM62.4853 13.0737L69.0685 15.1976L69.5291 13.7701L62.9459 11.6461L62.4853 13.0737ZM69.0685 15.1976C70.9611 15.8081 71.7952 16.0819 72.5313 16.5223L73.3015 15.2351C72.3848 14.6867 71.3581 14.3601 69.5291 13.7701L69.0685 15.1976ZM75.3016 18.9255L83.3056 26.6722L84.3488 25.5943L76.3448 17.8476L75.3016 18.9255ZM83.3056 26.6722C84.712 28.0333 85.711 29.0025 86.3678 29.8357C87.0119 30.6527 87.25 31.246 87.25 31.8449H88.75C88.75 30.7709 88.2927 29.8546 87.5459 28.9071C86.8118 27.9759 85.7244 26.9257 84.3488 25.5943L83.3056 26.6722ZM87.25 31.8449C87.25 32.4438 87.0119 33.0371 86.3678 33.8541C85.711 34.6873 84.712 35.6565 83.3056 37.0177L84.3488 38.0955C85.7244 36.7642 86.8118 35.714 87.5459 34.7827C88.2927 33.8352 88.75 32.9189 88.75 31.8449H87.25ZM83.3057 37.0176L71.4785 48.461L72.5215 49.539L84.3487 38.0956L83.3057 37.0176ZM23.25 49L23.25 66.7364H24.75V49H23.25ZM72.75 66.7364V49L71.25 49V66.7364H72.75ZM76.3459 17.8488L76.3436 17.8464L75.2981 18.9221L75.3005 18.9244L76.3459 17.8488ZM76.3424 17.8453C74.9809 16.5276 74.219 15.7838 73.3013 15.235L72.5315 16.5224C73.2665 16.962 73.8903 17.5595 75.2992 18.9232L76.3424 17.8453ZM75.2981 18.9221L75.3005 18.9244L76.3459 17.8488L76.3436 17.8464L75.2981 18.9221Z" fill="black"/>
</svg>
